# xmcd
#
# Track frame offsets: 
#        150
#        18219
#        32184
#        48737
#        64487
#        73066
#        93200
#        112302
#        131733
#        149461
#        167673
#
# Disc length: 2440 seconds
#
# Revision: 0
# Processed by: cddbd v1.5.2PL0 Copyright (c) Steve Scherf et al.
# Submitted via: ExactAudioCopy v0.95b4
#
DISCID=a809860b
DTITLE=Thomas Dybdahl - Science
DYEAR=2006
DGENRE=Country
TTITLE0=Something Real
TTITLE1=How It Feels
TTITLE2=Still My Body Aches
TTITLE3=No One Would Ever Know
TTITLE4=Dice
TTITLE5=Always
TTITLE6=U
TTITLE7=This Year
TTITLE8=Maury The Pawn
TTITLE9=Outro
TTITLE10=B A Part
EXTD=
EXTT0=
EXTT1=
EXTT2=
EXTT3=
EXTT4=
EXTT5=
EXTT6=
EXTT7=
EXTT8=
EXTT9=
EXTT10=
PLAYORDER=
